PathFileType	4	(X/Y/Z)	Patient4_TMGait_0pt8_01_left_50.trc.trc
DataRate	CameraRate	NumFrames	NumMarkers	Units	OrigDataRate	OrigDataStartFrame	OrigNumFrames
87.500000000000	87.500000000000	4	33	mm	87.500000000000	124	       141
Frame#	Time	Sacral			L.Shoulder			Chest			R.Shoulder			Neck			R.ASIS			L.ASIS			R.Thigh.Superior			R.Thigh.Lateral			R.Thigh.Inferior			R.Patella			L.Thigh.Superior			L.Thigh.Lateral			L.Thigh.Inferior			L.Patella			L.Shank.Superior			L.Shank.Lateral			L.Shank.Inferior			R.Shank.Superior			R.Shank.Lateral			R.Shank.Inferior			R.Heel			R.Midfoot.Superior			R.Midfoot.Lateral			R.Toe			L.Heel			L.Midfoot.Lateral			L.Midfoot.Superior			L.Toe			L.Elbow			L.Wrist			R.Elbow			R.Wrist			
		X1	Y1	Z1	X2	Y2	Z2	X3	Y3	Z3	X4	Y4	Z4	X5	Y5	Z5	X6	Y6	Z6	X7	Y7	Z7	X8	Y8	Z8	X9	Y9	Z9	X10	Y10	Z10	X11	Y11	Z11	X12	Y12	Z12	X13	Y13	Z13	X14	Y14	Z14	X15	Y15	Z15	X16	Y16	Z16	X17	Y17	Z17	X18	Y18	Z18	X19	Y19	Z19	X20	Y20	Z20	X21	Y21	Z21	X22	Y22	Z22	X23	Y23	Z23	X24	Y24	Z24	X25	Y25	Z25	X26	Y26	Z26	X27	Y27	Z27	X28	Y28	Z28	X29	Y29	Z29	X30	Y30	Z30	X31	Y31	Z31	X32	Y32	Z32	X33	Y33	Z33	

124	57.125714285714	883.174263189217	1000.812789814116	541.279208895473	1038.651476613813	1423.486067776954	338.928855408075	1166.718847631339	1349.194696063161	479.218532720630	1117.607329019605	1425.267873436309	664.200203383889	1046.737467709949	1480.906309808875	496.574535018624	1116.589078582746	925.863782345516	627.090328026846	1070.326083910673	946.626426202542	355.684256011950	1100.358161743539	711.692710512429	602.274460829401	991.839104783913	624.507795307127	670.148405659489	1041.272126885785	555.454981996244	587.029546009130	1016.788399325400	471.712599028607	592.180283545311	1145.223462504126	763.075483815137	384.309119073894	1089.210243002811	633.856454745284	313.671905088870	1195.826878960977	576.563092415786	370.483350355681	1222.291257499270	515.425987114248	367.231460067842	1211.555534192624	444.171466525164	357.592167651092	1153.470276956727	307.146717798459	317.982465095906	1254.965117907364	219.369899842256	367.056320923685	974.020980401224	391.374953157538	600.905186528835	889.940373218092	300.060115941489	666.504483274504	911.122809421251	200.338190787760	600.336066633213	755.470973518830	46.096038653652	571.530691010908	926.961474405929	96.214496143434	606.314004431983	838.361365438797	37.713284482571	646.004310435501	1046.691777531855	41.426213756590	636.098260456366	1193.601846931044	38.794383461118	418.793065397286	1261.146741649690	44.184753804068	333.120110374185	1328.509596788023	124.249205789065	346.756457466028	1461.156430274841	99.906623983621	312.372748078043	860.789169156150	1117.226784719575	271.113512604036	773.947673779390	874.388861524123	295.204967658771	1308.744574683529	1144.599870354164	758.044906507675	1558.301978182262	1179.906200007758	706.105902475433	
125	57.137142857143	884.868609301841	998.991627617899	538.694999249885	1038.292831089177	1422.242898435676	336.875239372929	1166.680282825742	1348.707618457049	477.166191328518	1116.949876250529	1424.288735726592	662.263780890627	1046.200945125773	1479.663925950187	494.570026368676	1118.329641200025	924.368219611548	624.819981376711	1072.543632204149	945.430587134770	353.455211080311	1101.439742247637	709.985556588315	600.176693650158	992.294976032539	623.219482643473	668.006753351894	1041.520602092941	553.652821685661	585.148256822414	1016.059456125594	469.289319670087	590.190795262215	1148.289341605934	761.715900160082	381.663553631424	1089.767414563031	631.558793255495	313.848401962278	1197.129083448169	574.684116839311	369.237035870742	1222.110847947830	512.260107166267	367.560555186816	1210.799546508860	440.604893162592	358.548974689780	1150.253301851745	304.551860363180	319.551325142434	1249.504966910959	215.180001590551	369.672525926144	971.712738560165	389.648756939717	599.208277312660	885.905437139612	300.206794080026	665.446365068504	904.785572990927	199.861260690286	599.701173308689	746.404637274801	47.468949949201	571.869146087189	918.312970918239	96.401725255288	606.382808800117	829.362778762388	38.265885269763	646.093156366487	1037.724708090264	40.801470000812	636.210347958755	1182.946092465995	38.045308777157	421.714514832358	1250.371608946346	41.600483652508	335.781695909007	1321.060766533953	118.145151731884	350.322138209222	1452.611082866511	88.395148015990	315.255073966158	860.569996243500	1116.212630501703	269.474319180857	773.391170610936	873.486954468497	293.353868735490	1308.869781601923	1144.280510620764	756.067152259657	1555.580562608999	1189.522736666321	702.018809091682	
126	57.148571428571	886.572916463411	997.375854817883	535.986374270475	1037.982010749914	1421.106006884036	334.754620767465	1166.724905499024	1348.362021646585	475.027415387867	1116.416611798512	1423.398817322197	660.309925684515	1045.775009412968	1478.584175619384	492.491433112970	1120.098491039264	923.000118354017	622.477584471939	1074.862390860775	944.464781060263	351.163476612316	1102.611463202637	708.443357722145	598.076086325146	992.899399838870	622.055760804829	665.795367972310	1042.091163237237	551.962877655099	583.268383614095	1015.762305186435	466.838396528488	588.292413095194	1151.674054789769	760.765359738115	378.998538129656	1090.981727238465	629.784543988720	313.703748349123	1198.969044971644	573.249317652886	368.023654367016	1222.432761381471	509.525711401915	367.927573444625	1210.541730095883	437.454463474624	359.383248181252	1147.657366832634	302.493439759216	320.413063983162	1244.232519398957	211.325096392926	371.938451236849	969.674168586268	388.006099835629	597.581608447993	882.049732462298	300.577892322037	664.433872676169	898.612855024589	199.614927757064	599.177164478148	737.379289398715	49.330716268010	572.317644832173	909.846505485663	96.671212812403	606.584258443563	820.401393946759	39.023130391073	646.243971369181	1028.775621879863	40.183895652544	636.316354859336	1171.931109215764	37.567298536857	423.840173691353	1239.454475660623	39.455934768770	337.826844096120	1313.437365089947	112.460037127007	353.604180438663	1443.935818482871	77.364098843853	318.141566736104	861.221377016294	1114.669871947667	267.514648379620	774.337063984560	871.791364814909	290.996793862513	1308.318032333958	1143.247661193239	754.304889474284	1551.881800985084	1197.942557873512	698.189717862634	
127	57.160000000000	888.242132131739	996.043713457998	533.182058383003	1037.765964913054	1420.133544217437	332.574883544131	1166.873011614199	1348.182673236746	472.826534331100	1116.041119211875	1422.658847241797	658.342737847558	1045.499561424320	1477.729598192003	490.348210557781	1121.849176030847	921.826025847268	620.065277493072	1077.206776515964	943.793818534516	348.819184480358	1103.882131855368	707.139980316879	595.966597996883	993.708401281225	621.057449172416	663.517115247736	1043.054756992736	550.449008651223	581.374938602545	1016.009122395206	464.399895185879	586.522942995091	1155.181054357593	760.230630872574	376.422994898750	1092.827109352170	628.632913838519	313.126223440300	1201.201880528860	572.305589620629	366.869780643796	1223.186663059797	507.344078410003	368.218474915455	1210.722377052246	434.840186691948	359.976799500619	1145.725257135362	301.039229181867	320.516289453348	1239.296234214693	207.990576782194	373.731576230470	967.992021873205	386.486259292622	596.062486746816	878.451865204266	301.239226853880	663.484269176729	892.682279712421	199.657531494225	598.788479840292	728.450535123987	51.801210020937	572.878453357415	901.622131027737	97.022157935696	606.927173184805	811.505635742670	40.044943306979	646.462494299725	1019.838746475384	39.595726117246	636.406629087406	1161.077022135535	37.339191321315	425.194766483400	1228.847254668423	37.828191807479	339.235408925427	1305.835540825715	107.539774615003	356.411089387610	1435.377741593242	67.583386689391	320.790440761461	862.757622667707	1112.668564628059	265.245236894411	776.793883227630	869.374780116825	288.148913692143	1307.072651416200	1141.525386880544	752.745845110801	1547.314931254088	1205.086047349422	694.634112057875	
